<svg width="13" height="15" viewBox="0 0 13 15" fill="none" xmlns="http://www.w3.org/2000/svg">
<path d="M8 10V11H5V10H4V7H5V6H8V7H9V10H8Z" fill="#0652FF"/>
<path d="M3 5V6H4V5H3Z" fill="#0652FF"/>
<path d="M9 5V6H10V5H9Z" fill="#0652FF"/>
<path d="M3 12V11H4V12H3Z" fill="#0652FF"/>
<path d="M9 11V12H10V11H9Z" fill="#0652FF"/>
<path fill-rule="evenodd" clip-rule="evenodd" d="M0 1.5C0 0.671573 0.671573 0 1.5 0H9.70711L13 3.29289V13.5C13 14.3284 12.3284 15 11.5 15H1.5C0.671572 15 0 14.3284 0 13.5V1.5ZM2 4H5V5H8V4H11V7H10V10H11V13H8V12H5V13H2V10H3V7H2V4Z" fill="#0652FF"/>
</svg>
