<svg width="13" height="15" viewBox="0 0 13 15" fill="none" xmlns="http://www.w3.org/2000/svg">
<path d="M2 10V7H2.5C2.77614 7 3 7.22386 3 7.5V9.5C3 9.77614 2.77614 10 2.5 10H2Z" fill="#0652FF"/>
<path d="M6 7.5C6 7.22386 6.22386 7 6.5 7C6.77614 7 7 7.22386 7 7.5V9.5C7 9.77614 6.77614 10 6.5 10C6.22386 10 6 9.77614 6 9.5V7.5Z" fill="#0652FF"/>
<path fill-rule="evenodd" clip-rule="evenodd" d="M0 1.5C0 0.671573 0.671573 0 1.5 0H9.70711L13 3.29289V13.5C13 14.3284 12.3284 15 11.5 15H1.5C0.671573 15 0 14.3284 0 13.5V1.5ZM2.5 6H1V11H2.5C3.32843 11 4 10.3284 4 9.5V7.5C4 6.67157 3.32843 6 2.5 6ZM6.5 6C5.67157 6 5 6.67157 5 7.5V9.5C5 10.3284 5.67157 11 6.5 11C7.32843 11 8 10.3284 8 9.5V7.5C8 6.67157 7.32843 6 6.5 6ZM9 11V6H12V8H11V7H10V10H11V9H12V11H9Z" fill="#0652FF"/>
</svg>
