<svg width="16" height="16" viewBox="0 0 16 16" fill="none" xmlns="http://www.w3.org/2000/svg">
<rect width="16" height="16" rx="8" fill="#A9A9A9"/>
<path d="M7.52552 9.2754C7.52552 8.94453 7.57147 8.6642 7.66338 8.43443C7.75529 8.20466 7.87018 8.00706 8.00804 7.84162C8.15509 7.66699 8.30674 7.50615 8.46299 7.3591C8.61923 7.20285 8.77088 7.04661 8.91794 6.89036C9.06499 6.72493 9.17988 6.53652 9.26259 6.32513C9.3545 6.11374 9.40046 5.86558 9.40046 5.58066C9.40046 5.37847 9.36369 5.19924 9.29017 5.043C9.22583 4.88675 9.12933 4.75349 9.00065 4.6432C8.87198 4.53291 8.71574 4.45019 8.53192 4.39504C8.35729 4.33071 8.16888 4.29854 7.96668 4.29854C7.65419 4.29854 7.37387 4.34909 7.12572 4.45019C6.87756 4.5421 6.65239 4.68915 6.45019 4.89135C6.35828 5.01083 6.29854 5.10274 6.27097 5.16708C6.25258 5.23141 6.24799 5.30034 6.25718 5.37387L6.18825 5.45659L6.07796 5.37387L5.3335 4.79485C5.54489 4.48236 5.77006 4.22042 6.00903 4.00902C6.25718 3.78844 6.5421 3.62301 6.86378 3.51272C7.19465 3.39324 7.58066 3.3335 8.02183 3.3335C8.52732 3.3335 8.96389 3.4254 9.33153 3.60922C9.70835 3.79304 9.99786 4.05038 10.2001 4.38126C10.4115 4.70294 10.5171 5.08436 10.5171 5.52552C10.5171 5.88396 10.4712 6.19186 10.3793 6.4492C10.2874 6.69736 10.1679 6.91334 10.0208 7.09716C9.87379 7.28098 9.71754 7.45101 9.55211 7.60725C9.38667 7.75431 9.23043 7.90596 9.08337 8.0622C8.93632 8.20926 8.81684 8.37929 8.72493 8.5723C8.63302 8.7653 8.58707 8.99967 8.58707 9.2754V9.882H7.52552V9.2754ZM8.07697 12.6668C7.83801 12.6668 7.63121 12.5841 7.45659 12.4187C7.28196 12.244 7.19465 12.0373 7.19465 11.7983C7.19465 11.5685 7.28196 11.3663 7.45659 11.1917C7.63121 11.0171 7.83801 10.9298 8.07697 10.9298C8.31593 10.9298 8.51813 11.0171 8.68357 11.1917C8.8582 11.3663 8.94551 11.5685 8.94551 11.7983C8.94551 12.0373 8.8582 12.244 8.68357 12.4187C8.51813 12.5841 8.31593 12.6668 8.07697 12.6668Z" fill="white"/>
</svg>
