<svg width="32" height="32" viewBox="0 0 32 32" fill="none" xmlns="http://www.w3.org/2000/svg">
<path d="M9.10345 9.5H11.3103V8.5H9.10345V9.5ZM11.9138 10.1034V12.3103H12.9138V10.1034H11.9138ZM11.3103 12.9138H9.10345V13.9138H11.3103V12.9138ZM8.5 12.3103V10.1034H7.5V12.3103H8.5ZM9.10345 12.9138C8.77017 12.9138 8.5 12.6436 8.5 12.3103H7.5C7.5 13.1959 8.21789 13.9138 9.10345 13.9138V12.9138ZM11.9138 12.3103C11.9138 12.6436 11.6436 12.9138 11.3103 12.9138V13.9138C12.1959 13.9138 12.9138 13.1959 12.9138 12.3103H11.9138ZM11.3103 9.5C11.6436 9.5 11.9138 9.77017 11.9138 10.1034H12.9138C12.9138 9.21789 12.1959 8.5 11.3103 8.5V9.5ZM9.10345 8.5C8.21789 8.5 7.5 9.21789 7.5 10.1034H8.5C8.5 9.77017 8.77017 9.5 9.10345 9.5V8.5ZM9.10345 18.3276H11.3103V17.3276H9.10345V18.3276ZM11.9138 18.931V21.1379H12.9138V18.931H11.9138ZM11.3103 21.7414H9.10345V22.7414H11.3103V21.7414ZM8.5 21.1379V18.931H7.5V21.1379H8.5ZM9.10345 21.7414C8.77017 21.7414 8.5 21.4712 8.5 21.1379H7.5C7.5 22.0235 8.21789 22.7414 9.10345 22.7414V21.7414ZM11.9138 21.1379C11.9138 21.4712 11.6436 21.7414 11.3103 21.7414V22.7414C12.1959 22.7414 12.9138 22.0235 12.9138 21.1379H11.9138ZM11.3103 18.3276C11.6436 18.3276 11.9138 18.5978 11.9138 18.931H12.9138C12.9138 18.0455 12.1959 17.3276 11.3103 17.3276V18.3276ZM9.10345 17.3276C8.21789 17.3276 7.5 18.0455 7.5 18.931H8.5C8.5 18.5978 8.77017 18.3276 9.10345 18.3276V17.3276ZM15.1724 11.7069H24V10.7069H15.1724V11.7069ZM15.1724 20.5345H24V19.5345H15.1724V20.5345Z" fill="#A9A9A9"/>
</svg>
