<svg width="32" height="32" viewBox="0 0 32 32" fill="none" xmlns="http://www.w3.org/2000/svg">
<rect width="32" height="32" rx="4" fill="white"/>
<path d="M9.14286 8.5H13.7143V7.5H9.14286V8.5ZM14.3571 9.14286V13.7143H15.3571V9.14286H14.3571ZM13.7143 14.3571H9.14286V15.3571H13.7143V14.3571ZM8.5 13.7143V9.14286H7.5V13.7143H8.5ZM9.14286 14.3571C8.78782 14.3571 8.5 14.0693 8.5 13.7143H7.5C7.5 14.6216 8.23553 15.3571 9.14286 15.3571V14.3571ZM14.3571 13.7143C14.3571 14.0693 14.0693 14.3571 13.7143 14.3571V15.3571C14.6216 15.3571 15.3571 14.6216 15.3571 13.7143H14.3571ZM13.7143 8.5C14.0693 8.5 14.3571 8.78782 14.3571 9.14286H15.3571C15.3571 8.23553 14.6216 7.5 13.7143 7.5V8.5ZM9.14286 7.5C8.23553 7.5 7.5 8.23553 7.5 9.14286H8.5C8.5 8.78782 8.78782 8.5 9.14286 8.5V7.5ZM18.2857 8.5H22.8571V7.5H18.2857V8.5ZM23.5 9.14286V13.7143H24.5V9.14286H23.5ZM22.8571 14.3571H18.2857V15.3571H22.8571V14.3571ZM17.6429 13.7143V9.14286H16.6429V13.7143H17.6429ZM18.2857 14.3571C17.9307 14.3571 17.6429 14.0693 17.6429 13.7143H16.6429C16.6429 14.6216 17.3784 15.3571 18.2857 15.3571V14.3571ZM23.5 13.7143C23.5 14.0693 23.2122 14.3571 22.8571 14.3571V15.3571C23.7645 15.3571 24.5 14.6216 24.5 13.7143H23.5ZM22.8571 8.5C23.2122 8.5 23.5 8.78782 23.5 9.14286H24.5C24.5 8.23553 23.7645 7.5 22.8571 7.5V8.5ZM18.2857 7.5C17.3784 7.5 16.6429 8.23553 16.6429 9.14286H17.6429C17.6429 8.78782 17.9307 8.5 18.2857 8.5V7.5ZM18.2857 17.6429H22.8571V16.6429H18.2857V17.6429ZM23.5 18.2857V22.8571H24.5V18.2857H23.5ZM22.8571 23.5H18.2857V24.5H22.8571V23.5ZM17.6429 22.8571V18.2857H16.6429V22.8571H17.6429ZM18.2857 23.5C17.9307 23.5 17.6429 23.2122 17.6429 22.8571H16.6429C16.6429 23.7645 17.3784 24.5 18.2857 24.5V23.5ZM23.5 22.8571C23.5 23.2122 23.2122 23.5 22.8571 23.5V24.5C23.7645 24.5 24.5 23.7645 24.5 22.8571H23.5ZM22.8571 17.6429C23.2122 17.6429 23.5 17.9307 23.5 18.2857H24.5C24.5 17.3784 23.7645 16.6429 22.8571 16.6429V17.6429ZM18.2857 16.6429C17.3784 16.6429 16.6429 17.3784 16.6429 18.2857H17.6429C17.6429 17.9307 17.9307 17.6429 18.2857 17.6429V16.6429ZM9.14286 17.6429H13.7143V16.6429H9.14286V17.6429ZM14.3571 18.2857V22.8571H15.3571V18.2857H14.3571ZM13.7143 23.5H9.14286V24.5H13.7143V23.5ZM8.5 22.8571V18.2857H7.5V22.8571H8.5ZM9.14286 23.5C8.78782 23.5 8.5 23.2122 8.5 22.8571H7.5C7.5 23.7645 8.23553 24.5 9.14286 24.5V23.5ZM14.3571 22.8571C14.3571 23.2122 14.0693 23.5 13.7143 23.5V24.5C14.6216 24.5 15.3571 23.7645 15.3571 22.8571H14.3571ZM13.7143 17.6429C14.0693 17.6429 14.3571 17.9307 14.3571 18.2857H15.3571C15.3571 17.3784 14.6216 16.6429 13.7143 16.6429V17.6429ZM9.14286 16.6429C8.23553 16.6429 7.5 17.3784 7.5 18.2857H8.5C8.5 17.9307 8.78782 17.6429 9.14286 17.6429V16.6429Z" fill="#A9A9A9"/>
</svg>
